<?xml version="1.0" encoding="UTF-8"?>
<svg xmlns="http://www.w3.org/2000/svg" onmouseup="{ if(window.parent.document.onmouseup) window.parent.document.onmouseup(arguments[0]);}" viewBox="0 0 88.03 83.76"><title/><g data-name="Layer 2" id="Layer_2"><g data-name="Layer 2" id="Layer_2-2"><path data-cppathid="10000" fill="#fff" d="M70.39,83.76a1.34,1.34,0,0,1-.79-.26L44,64.91,18.43,83.5a1.35,1.35,0,0,1-1.58,0,1.32,1.32,0,0,1-.48-1.5l9.77-30.08L.55,33.34a1.35,1.35,0,0,1-.48-1.51,1.33,1.33,0,0,1,1.27-.93H33L42.74.83a1.39,1.39,0,0,1,2.55,0L55.06,30.9H86.69a1.35,1.35,0,0,1,.79,2.44L61.9,51.92,71.67,82a1.34,1.34,0,0,1-.49,1.5A1.36,1.36,0,0,1,70.39,83.76ZM44,61.91a1.38,1.38,0,0,1,.8.25l23,16.73L59,51.82a1.34,1.34,0,0,1,.48-1.5l23-16.73H54.09a1.34,1.34,0,0,1-1.28-.92L44,5.6,35.22,32.67a1.34,1.34,0,0,1-1.28.92H5.48l23,16.73a1.34,1.34,0,0,1,.49,1.5L20.2,78.89l23-16.73A1.37,1.37,0,0,1,44,61.91Z"/></g></g></svg>