<?xml version="1.0" encoding="UTF-8"?>
<svg xmlns="http://www.w3.org/2000/svg" onmouseup="{ if(window.parent.document.onmouseup) window.parent.document.onmouseup(arguments[0]);}" viewBox="0 0 85.05 75.34"><title/><g data-name="Layer 2" id="Layer_2"><g data-name="Layer 2" id="Layer_2-2"><path data-cppathid="10000" fill="#fff" d="M73.39,0,24.73,48.67a15.08,15.08,0,1,0-9.62,26.67h0A15.06,15.06,0,0,0,26.67,50.61L44.25,33,54,42.74,65.62,31.09l-4.85-4.86,7.77-7.77,4.85,4.86L85.05,11.66ZM23.85,69a12.25,12.25,0,0,1-8.74,3.62h0A12.36,12.36,0,1,1,23.85,69Zm44.69-54.4L56.88,26.23l4.86,4.86L54,38.86l-7.77-7.77,27.2-27.2,7.78,7.77-7.78,7.77Z"/></g></g></svg>