<?xml version="1.0" encoding="UTF-8"?>
<svg xmlns="http://www.w3.org/2000/svg" onmouseup="{ if(window.parent.document.onmouseup) window.parent.document.onmouseup(arguments[0]);}" viewBox="0 0 56.9 84"><title/><g data-name="Layer 2" id="Layer_2"><g data-name="Layer 2" id="Layer_2-2"><path data-cppathid="10000" fill="#fff" d="M43.29,13.62a14.89,14.89,0,0,0-29.68,0A14.91,14.91,0,0,0,0,28.45V75.87A8.14,8.14,0,0,0,8.13,84H48.77a8.14,8.14,0,0,0,8.13-8.13V28.45A14.91,14.91,0,0,0,43.29,13.62ZM28.45,2.71A12.18,12.18,0,0,1,40.51,13.55H16.4A12.16,12.16,0,0,1,28.45,2.71ZM54.19,75.87a5.42,5.42,0,0,1-5.42,5.42H8.13a5.42,5.42,0,0,1-5.42-5.42V28.45A12.21,12.21,0,0,1,14.9,16.26H42A12.21,12.21,0,0,1,54.19,28.45Z"/><path data-cppathid="10001" fill="#fff" d="M42,40.64H14.9A1.35,1.35,0,0,0,13.55,42V69.1a1.34,1.34,0,0,0,1.35,1.35H42a1.34,1.34,0,0,0,1.35-1.35V42A1.35,1.35,0,0,0,42,40.64Zm-1.36,27.1H16.26V43.35H40.64Z"/></g></g></svg>